HIERARCHY
ROOT Hips
{
	OFFSET 0.000000 0.000000 0.000000
	CHANNELS 6 Xposition Yposition Zposition Xrotation Yrotation Zrotation
	JOINT LeftUpLeg_virtual
	{
		OFFSET 0.000000 0.000000 0.000000
		CHANNELS 3 Xrotation Yrotation Zrotation
		JOINT LeftUpLeg
		{
			OFFSET 13.026900 -6.336304 -1.092800
			CHANNELS 3 Xrotation Yrotation Zrotation
			JOINT LeftLeg
			{
				OFFSET 0.524474 -46.096886 9.782700
				CHANNELS 3 Xrotation Yrotation Zrotation
				JOINT LeftFoot
				{
					OFFSET -0.524474 -53.427422 -12.948200
					CHANNELS 3 Xrotation Yrotation Zrotation
					JOINT LeftToeBase
					{
						OFFSET 0.192200 -14.009700 16.364100
						CHANNELS 3 Xrotation Yrotation Zrotation
						JOINT LeftToe_End
						{
							OFFSET -1.784700 -0.561700 9.474800
							CHANNELS 3 Xrotation Yrotation Zrotation
							End Site
							{
								OFFSET 0 0 0
							}
						}
					}
				}
			}
		}
	}
	JOINT RightUpLeg_virtual
	{
		OFFSET 0.000000 0.000000 0.000000
		CHANNELS 3 Xrotation Yrotation Zrotation
		JOINT RightUpLeg
		{
			OFFSET -12.883000 -6.336304 -1.092800
			CHANNELS 3 Xrotation Yrotation Zrotation
			JOINT RightLeg
			{
				OFFSET -0.524587 -46.096825 9.782800
				CHANNELS 3 Xrotation Yrotation Zrotation
				JOINT RightFoot
				{
					OFFSET 0.524587 -53.427383 -12.948300
					CHANNELS 3 Xrotation Yrotation Zrotation
					JOINT RightToeBase
					{
						OFFSET -0.192200 -14.009700 16.364100
						CHANNELS 3 Xrotation Yrotation Zrotation
						JOINT RightToe_End
						{
							OFFSET 1.784700 -0.561700 9.474800
							CHANNELS 3 Xrotation Yrotation Zrotation
							End Site
							{
								OFFSET 0 0 0
							}
						}
					}
				}
			}
		}
	}
	JOINT Spine_virtual
	{
		OFFSET 0.000000 0.000000 0.000000
		CHANNELS 3 Xrotation Yrotation Zrotation
		JOINT Spine
		{
			OFFSET 0.072000 7.257294 -0.789700
			CHANNELS 3 Xrotation Yrotation Zrotation
			JOINT Spine1
			{
				OFFSET 0.000000 12.508769 -0.658067
				CHANNELS 3 Xrotation Yrotation Zrotation
				JOINT Spine1_split
				{
					OFFSET 0.000000 12.508769 -0.658067
					CHANNELS 3 Xrotation Yrotation Zrotation
					JOINT Spine2
					{
						OFFSET 0.000000 12.508769 -0.658067
						CHANNELS 3 Xrotation Yrotation Zrotation
						JOINT Neck_virtual
						{
							OFFSET 0.000000 0.000000 0.000000
							CHANNELS 3 Xrotation Yrotation Zrotation
							JOINT Neck
							{
								OFFSET 0.000000 14.033295 7.520400
								CHANNELS 3 Xrotation Yrotation Zrotation
								JOINT Head
								{
									OFFSET 0.000000 8.198502 5.703100
									CHANNELS 3 Xrotation Yrotation Zrotation
									JOINT HeadTop_End
									{
										OFFSET 0.000000 17.760803 13.332701
										CHANNELS 3 Xrotation Yrotation Zrotation
										End Site
										{
											OFFSET 0 0 0
										}
									}
								}
							}
						}
						JOINT LeftShoulder_virtual
						{
							OFFSET 0.000000 0.000000 0.000000
							CHANNELS 3 Xrotation Yrotation Zrotation
							JOINT LeftShoulder
							{
								OFFSET 6.292450 5.785301 -0.669000
								CHANNELS 3 Xrotation Yrotation Zrotation
								JOINT LeftShoulder_split
								{
									OFFSET 6.292450 5.785301 -0.669000
									CHANNELS 3 Xrotation Yrotation Zrotation
									JOINT LeftArm
									{
										OFFSET 13.907140 -6.093903 1.965100
										CHANNELS 3 Xrotation Yrotation Zrotation
										JOINT LeftForeArm
										{
											OFFSET 34.140198 0.000000 0.000000
											CHANNELS 3 Xrotation Yrotation Zrotation
											JOINT LeftHand
											{
												OFFSET 40.960209 0.000000 0.000000
												CHANNELS 3 Xrotation Yrotation Zrotation
												End Site
												{
													OFFSET 0 0 0
												}
											}
										}
									}
								}
							}
						}
						JOINT RightShoulder_virtual
						{
							OFFSET 0.000000 0.000000 0.000000
							CHANNELS 3 Xrotation Yrotation Zrotation
							JOINT RightShoulder
							{
								OFFSET -6.292450 5.785301 -0.669000
								CHANNELS 3 Xrotation Yrotation Zrotation
								JOINT RightShoulder_split
								{
									OFFSET -6.292450 5.785301 -0.669000
									CHANNELS 3 Xrotation Yrotation Zrotation
									JOINT RightArm
									{
										OFFSET -13.907140 -6.093903 1.965100
										CHANNELS 3 Xrotation Yrotation Zrotation
										JOINT RightForeArm
										{
											OFFSET -34.140198 0.000000 0.000000
											CHANNELS 3 Xrotation Yrotation Zrotation
											JOINT RightHand
											{
												OFFSET -40.960209 0.000000 0.000000
												CHANNELS 3 Xrotation Yrotation Zrotation
												End Site
												{
													OFFSET 0 0 0
												}
											}
										}
									}
								}
							}
						}
					}
				}
			}
		}
	}
}
MOTION
Frames: 8
Frame Time: 0.03333333
2.971964 110.410240 -65.318855 0.000000 0.000000 0.000000 173.045028 -62.737091 173.242585 -25.604166 13.175916 21.175320 37.272745 -5.346912 -3.572753 -11.432249 6.342525 -3.107964 4.458820 0.974199 -2.260030 0.000000 0.000000 0.000000 172.105864 -63.453202 171.724398 -12.549989 -0.308739 4.032136 27.988256 0.430317 1.337964 -18.316875 -2.966154 -5.689919 -1.801111 -1.541133 -5.644404 0.000000 0.000000 0.000000 172.964295 -65.352015 171.743263 2.212428 6.081780 1.706319 -2.398204 2.354192 -2.723247 0.133394 -0.541943 0.019070 0.000000 0.000000 0.000000 0.962115 3.373407 -1.950838 -6.198886 16.232609 9.561511 -16.559944 4.841911 1.713992 0.000000 0.000000 0.000000 -1.057162 0.993883 -2.202063 2.936899 3.811242 6.028909 0.781927 -0.067305 1.587556 -11.157536 8.243197 -72.512116 18.245452 -12.657397 1.334311 0.000000 0.000000 0.000000 -3.976559 1.146965 -0.108052 -0.637405 -14.643256 18.342394 -20.763505 -9.368814 -5.495432 16.187603 43.008479 46.625993 12.316014 26.168611 1.823871 0.000000 0.000000 0.000000 
2.664366 111.035995 -67.434334 0.000000 0.000000 0.000000 173.882915 -57.410076 174.942742 -25.930154 8.412633 17.150113 37.239267 -5.627069 -2.564001 -9.578593 6.581672 -4.858990 3.568175 1.148088 -2.713376 0.000000 0.000000 0.000000 172.664546 -59.003019 173.245549 -12.197696 3.373486 4.444068 26.454383 2.560870 0.699781 -17.288807 -2.896667 -7.380095 -3.122090 -1.834784 -4.087470 0.000000 0.000000 0.000000 174.503082 -60.175818 174.436666 2.320646 6.901185 2.014354 -2.050259 2.755993 -2.752942 0.108131 -0.592328 0.016823 0.000000 0.000000 0.000000 1.808861 3.747731 -2.210001 -5.769412 15.773033 9.134874 -17.260450 4.219407 3.004109 0.000000 0.000000 0.000000 -0.390183 1.291945 -2.158835 2.373718 2.516850 4.961221 1.216675 0.285022 1.660463 -8.877068 8.587435 -72.977293 17.897901 -11.947723 0.324078 0.000000 0.000000 0.000000 -3.755337 1.411762 -0.173598 -0.851901 -14.626526 18.347172 -19.644725 -8.785080 -5.481894 15.016932 43.941575 46.518632 12.556547 27.043793 1.351931 0.000000 0.000000 0.000000 
2.056711 111.725876 -69.355133 0.000000 0.000000 0.000000 174.089979 -52.131166 175.966409 -27.165366 3.894026 13.001057 35.586576 -5.924375 -1.128991 -6.956299 6.559349 -7.476578 1.596352 1.304833 -3.020494 0.000000 0.000000 0.000000 172.830752 -54.958308 174.339376 -11.559479 6.442873 4.838964 25.083006 4.573961 0.142298 -16.536417 -2.834166 -9.465343 -4.182231 -2.039908 -2.587280 0.000000 0.000000 0.000000 175.246521 -55.024014 176.315500 2.325055 7.637663 2.185876 -1.624259 3.085049 -2.690712 0.082298 -0.593715 0.024147 0.000000 0.000000 0.000000 2.781901 4.090563 -2.394891 -5.419154 15.580618 8.636545 -17.724614 3.605175 4.287624 0.000000 0.000000 0.000000 0.361831 1.558151 -1.994500 1.769275 1.355101 3.941953 1.276408 0.088324 1.464679 -6.235817 8.536247 -73.414111 16.798613 -10.943653 -1.023129 0.000000 0.000000 0.000000 -3.377814 1.639619 -0.195687 -1.119227 -14.337271 18.208425 -18.213459 -8.407671 -5.022272 13.284412 45.244433 46.718825 12.275837 27.131291 1.090033 0.000000 0.000000 0.000000 
1.236976 112.272171 -71.313339 0.000000 0.000000 0.000000 174.222075 -47.027263 176.772645 -29.234641 0.227704 9.219904 33.075355 -6.019089 0.444811 -4.222532 6.420370 -10.480096 -0.487428 1.455859 -3.268756 0.000000 0.000000 0.000000 173.147099 -51.033780 175.376937 -10.624556 8.620747 5.331011 24.428583 6.301506 -0.379022 -16.519752 -2.589937 -12.322931 -4.563896 -2.089688 -1.391191 0.000000 0.000000 0.000000 175.751614 -49.901058 177.591844 2.429899 8.331335 2.292742 -1.169028 3.294771 -2.528092 0.047044 -0.582138 0.049594 0.000000 0.000000 0.000000 3.796235 4.360077 -2.465756 -5.114810 15.614784 8.187217 -18.026944 3.000243 5.667642 0.000000 0.000000 0.000000 1.123787 1.778001 -1.710866 1.187948 0.512423 3.130283 1.206387 -0.090202 0.948595 -3.402688 8.554285 -74.191591 15.267855 -10.219297 -2.384340 0.000000 0.000000 0.000000 -2.819466 1.813490 -0.184253 -1.374819 -13.587961 18.108992 -16.699478 -8.167677 -4.451075 11.069601 46.824638 47.434588 11.507997 26.723820 1.067383 0.000000 0.000000 0.000000 
0.163147 112.555466 -73.208626 0.000000 0.000000 0.000000 174.489477 -42.251700 177.462631 -32.082911 -2.199624 6.337642 30.951644 -5.848183 1.961451 -1.618970 6.189716 -13.568656 -1.330481 1.530748 -3.437738 0.000000 0.000000 0.000000 173.696492 -47.012831 176.255436 -9.420195 9.849260 5.767074 24.762948 7.832683 -0.858261 -17.221417 -1.849755 -15.623511 -4.838699 -1.918187 -0.846798 0.000000 0.000000 0.000000 176.376549 -45.023815 178.444156 2.871471 8.980724 2.438468 -0.693269 3.395390 -2.292554 0.061552 -0.576734 0.044680 0.000000 0.000000 0.000000 4.764460 4.539715 -2.406487 -5.010277 15.828991 7.972456 -18.593751 2.533666 7.016515 0.000000 0.000000 0.000000 1.855976 1.966122 -1.369272 0.641083 0.146621 2.483794 1.309349 -0.467419 0.066000 -0.565362 8.947507 -75.548374 13.738412 -10.406773 -3.401860 0.000000 0.000000 0.000000 -2.121696 1.921741 -0.147787 -1.607946 -12.314908 18.194552 -15.316132 -8.089446 -3.805028 8.737807 48.580595 48.565295 10.351657 26.298030 1.214302 0.000000 0.000000 0.000000 
-1.094579 112.541656 -75.304550 0.000000 0.000000 0.000000 175.123346 -37.907857 178.103384 -35.206616 -3.416642 4.595273 29.934913 -5.446392 3.295119 0.603813 5.825080 -16.582111 -0.542621 1.453070 -3.346443 0.000000 0.000000 0.000000 174.643443 -42.835965 177.126859 -8.062249 10.164743 5.999983 25.888266 9.541502 -1.374139 -17.805451 -0.294080 -18.458035 -5.854994 -1.500624 -1.264821 0.000000 0.000000 0.000000 177.410230 -40.588191 179.021171 3.790241 9.520177 2.666060 -0.235344 3.371557 -2.028301 0.116644 -0.702209 0.079371 0.000000 0.000000 0.000000 5.672136 4.624462 -2.209019 -5.206377 16.160335 8.124888 -19.907744 2.132872 8.056771 0.000000 0.000000 0.000000 2.508787 2.110959 -1.043839 0.103326 0.280762 1.915142 1.870138 -0.931073 -0.710959 1.958735 9.779012 -77.538425 12.498433 -11.754988 -3.943967 0.000000 0.000000 0.000000 -1.411038 1.938582 -0.128963 -1.797153 -10.590094 18.514204 -14.307434 -8.326799 -3.316060 6.622598 50.165127 50.100889 8.889812 26.319256 1.479164 0.000000 0.000000 0.000000 
-2.463966 112.399391 -77.754822 0.000000 0.000000 0.000000 176.064491 -34.257125 178.593423 -37.902875 -3.759386 3.865090 29.885086 -4.628893 4.200867 1.901667 5.409143 -19.030017 0.489032 1.178600 -2.696465 0.000000 0.000000 0.000000 175.787759 -38.817348 177.709679 -6.778420 9.632792 5.949817 27.226401 11.954034 -1.937686 -17.724599 2.213095 -19.779326 -7.556978 -0.837613 -2.783219 0.000000 0.000000 0.000000 179.056647 -37.009100 179.494803 5.275747 9.849602 2.891202 0.173931 3.231077 -1.805245 0.175023 -1.029009 0.169199 0.000000 0.000000 0.000000 6.489746 4.616893 -1.895357 -5.716183 16.504683 8.736770 -21.922288 1.910958 8.431354 0.000000 0.000000 0.000000 2.995959 2.195388 -0.829212 -0.485060 0.925548 1.217480 2.947572 -1.531754 -1.282950 3.912078 10.808537 -79.882655 11.786653 -14.121817 -3.997699 0.000000 0.000000 0.000000 -0.807309 1.875745 -0.192869 -1.911116 -8.671471 19.023926 -13.339722 -8.847146 -2.922692 4.788210 51.191872 52.039754 7.233712 26.974405 1.731923 0.000000 0.000000 0.000000 
-3.874583 112.322746 -80.698257 0.000000 0.000000 0.000000 177.155463 -31.248327 178.893760 -39.192076 -3.722095 3.613912 30.110701 -3.069549 4.611410 2.002844 5.246705 -20.306000 0.574804 0.671620 -1.533856 0.000000 0.000000 0.000000 176.843706 -35.752332 177.804973 -5.590550 8.385600 5.625752 28.437062 15.218514 -2.486376 -16.805578 5.387848 -19.307364 -9.449272 0.027812 -5.213018 0.000000 0.000000 0.000000 -179.002032 -34.505767 179.775920 7.222516 9.872251 3.036198 0.430869 3.006270 -1.662649 0.241186 -1.463791 0.278395 0.000000 0.000000 0.000000 7.159225 4.518189 -1.508035 -6.543111 16.775860 9.742687 -24.465014 1.797011 7.862285 0.000000 0.000000 0.000000 3.260863 2.227757 -0.785508 -1.074697 1.878738 0.109640 4.179251 -2.490230 -1.281178 5.306238 11.612679 -81.910497 11.549209 -17.154432 -3.656104 0.000000 0.000000 0.000000 -0.413634 1.724557 -0.390177 -2.019667 -6.761810 19.567876 -12.108843 -9.353821 -2.609514 3.434957 51.608158 54.136090 5.536654 28.254092 1.874048 0.000000 0.000000 0.000000 
